<svg width="434" height="119" xmlns="http://www.w3.org/2000/svg" xml:space="preserve" enable-background="new 0 0 528 528" version="1.1">

 <g>
  <title>Layer 1</title>
  <path id="svg_2" d="m1.37314,88.9737c-6.40022,-27.69119 10.128,-51.40637 38.01987,-53.32037c24.47445,-1.6795 42.54715,18.09462 43.42748,38.47964c0.38425,8.89759 -1.07608,17.23685 -5.87977,24.83634c-0.95181,1.50577 -1.65306,3.311 -4.15339,3.94693c-4.27292,-6.25082 -8.60929,-12.59451 -13.02163,-19.04932c0.86847,-0.72162 1.3178,-1.21682 1.86928,-1.53509c10.2099,-5.89255 13.15642,-11.7908 11.45103,-22.98581c-1.16996,-7.68024 -7.6144,-13.42014 -17.62623,-15.37656c-7.39059,-1.4442 -14.89255,-1.50967 -22.39443,-1.17247c-4.38813,0.19725 -6.72693,1.64664 -6.6346,6.92478c0.33218,18.98848 0.15317,37.98683 0.05715,56.98091c-0.01764,3.48956 0.4827,5.86566 4.8497,5.51983c2.76884,-0.21926 3.80175,-1.31247 3.76255,-4.02673c-0.0914,-6.33005 0.05865,-12.6637 -0.03973,-18.9935c-0.04489,-2.88779 0.98268,-3.92923 4.00082,-4.28299c7.62334,-0.89349 13.54883,0.83554 17.34281,8.15982c2.36447,4.56461 5.31673,8.85138 8.27674,13.07245c2.40748,3.43311 1.09111,5.14578 -2.0324,7.03357c-21.8457,13.20306 -50.39049,3.28174 -60.11216,-21.0032c-0.37124,-0.9274 -0.69807,-1.87256 -1.16309,-3.20823z" fill="#000000"/>
  <path id="svg_3" d="m370.29225,37.97132c-0.50058,5.00588 -3.2385,6.48592 -7.56565,6.39472c-7.81894,-0.16477 -15.64419,-0.18324 -23.46414,-0.0727c-3.53326,0.04995 -5.57037,-1.34983 -6.57883,-4.74778c-1.03955,-3.50267 -2.47949,-6.88449 -3.60476,-10.36426c-1.45066,-4.48579 -0.66376,-5.71117 4.19555,-5.78511c9.31809,-0.1418 18.64084,-0.1131 27.95984,-0.00272c4.30976,0.05104 8.55127,0.40895 9.03,-5.61148c0.12674,-1.59382 2.0362,-1.9826 3.09351,-3.46785c-5.87015,-3.14924 -11.42761,-6.10324 -16.956,-9.11074c-2.10226,-1.14365 -3.86868,-0.07602 -5.67676,0.70611c-8.09051,3.49983 -16.1549,7.06049 -24.26336,10.51798c-1.7099,0.72911 -3.97403,2.50202 -5.24094,-0.03541c-1.35165,-2.70727 1.52252,-3.20013 3.20789,-3.94574c8.82113,-3.90235 17.71139,-7.64962 26.50812,-11.60536c2.51056,-1.12898 4.70095,-1.16316 7.10446,0.15282c8.46374,4.63422 16.97601,9.17979 25.46078,13.77574c1.31015,0.70966 2.92456,1.41869 2.5777,3.24176c-0.35174,1.8485 -2.26633,2.19002 -3.6084,1.99495c-7.72885,-1.1234 -9.60315,3.54895 -10.30591,9.79541c-0.29532,2.62465 -1.14871,5.18649 -1.8731,8.16966m-30.22837,-7.36842c-1.20044,-2.95384 -3.29965,-1.89996 -5.34826,-1.42696c0.64395,5.51976 1.39984,7.25287 4.26956,9.71465c2.14175,-2.25662 0.87933,-5.02062 1.0787,-8.28769m4.76731,1.72749c0.69162,2.25255 -1.64618,6.57117 2.12472,6.43659c3.91727,-0.13982 1.5166,-4.50072 2.06171,-6.94837c0.24658,-1.10731 0.02646,-2.51605 -1.3609,-2.82692c-1.93033,-0.43252 -2.62113,0.86347 -2.82553,3.3387m12.33203,4.79929c-0.15555,-2.69019 1.21841,-5.60931 -1.07697,-7.96837c-0.49804,-0.51189 -1.41147,-0.26831 -1.74542,0.30234c-1.34134,2.29216 -0.62714,4.82231 -0.61044,7.25892c0.00409,0.59647 0.29776,1.38418 0.73687,1.74465c0.94614,0.77673 1.83039,0.37283 2.69596,-1.33754m9.34298,-5.59392c0.30893,-1.21385 0.43677,-2.41128 -1.18365,-2.7086c-1.03604,-0.19011 -2.27158,0.10312 -2.44779,1.19307c-0.49917,3.08771 -1.35681,6.3027 1.17753,9.68405c1.50381,-2.65965 1.81701,-5.08394 2.45391,-8.16852z" fill="#000000"/>
  <path id="svg_4" d="m166.54022,61.09117c10.39065,0.78317 14.09619,4.6568 14.21656,14.5711c0.07485,6.1648 -0.02194,12.33152 0.01601,18.49701c0.01559,2.53635 -0.12454,4.6142 -3.61288,4.54324c-3.38677,-0.06893 -3.68192,-2.15856 -3.7117,-4.66201c-0.07332,-6.16419 0.02246,-12.33582 -0.25548,-18.49063c-0.28452,-6.30033 -4.12288,-8.89325 -10.0784,-7.34583c-2.83985,0.73789 -3.8674,1.87906 -3.62584,5.20041c0.51846,7.12897 0.19733,14.31805 0.25247,21.48227c0.01793,2.32742 -0.64313,3.77872 -3.38254,3.7883c-2.72392,0.00955 -3.9973,-1.04059 -4.00474,-3.80014c-0.01752,-6.49817 -0.09067,-12.99664 -0.19954,-19.49402c-0.07099,-4.23523 -2.08565,-6.92325 -6.41478,-7.57956c-5.21784,-0.79102 -6.94376,0.69785 -6.9635,6.02405c-0.02533,6.83221 -0.01865,13.66461 -0.02213,20.49692c-0.00116,2.26361 0.00798,4.34161 -3.26011,4.37454c-3.01334,0.03036 -4.24396,-1.25223 -4.23554,-4.15128c0.02716,-9.33169 0.03157,-18.66363 -0.0133,-27.99521c-0.01169,-2.42907 1.23548,-3.79243 3.43371,-4.20008c6.3871,-1.18447 12.84645,-2.66842 19.0336,0.69493c1.85536,1.00856 3.38953,0.68296 5.19916,0.03543c2.33603,-0.83591 4.79385,-1.33147 7.62897,-1.98944z" fill="#000000"/>
  <path id="svg_5" d="m282.33585,57.15663c-3.95523,4.6943 -3.54251,8.05566 1.32087,10.70892c3.49258,1.90546 7.26944,3.28229 10.8652,5.00793c6.59482,3.16498 9.99579,8.91724 9.05478,15.12287c-0.97354,6.42056 -5.55154,10.56698 -13.19678,11.48779c-4.96875,0.59842 -9.97909,0.4383 -14.81488,-1.11056c-2.37143,-0.75953 -5.06671,-1.42325 -4.13803,-4.9834c1.00543,-3.85416 3.50433,-2.53324 5.86566,-1.6742c3.67218,1.33591 7.48807,1.71851 11.30298,1.11924c3.03272,-0.47642 5.86356,-1.62839 6.53284,-5.2074c0.66366,-3.54929 -0.64728,-6.2865 -3.86194,-7.84662c-3.28058,-1.59219 -6.72031,-2.85278 -10.05408,-4.33991c-7.63486,-3.40579 -10.63931,-8.53179 -9.23877,-15.63766c1.33054,-6.75066 6.6059,-10.56783 14.72425,-10.80128c4.03235,-0.11596 7.9407,0.3402 11.7698,1.64585c2.50092,0.85277 2.81244,2.46485 2.01444,4.69506c-0.78015,2.18033 -2.04801,2.61209 -4.25415,1.84776c-4.45203,-1.54248 -9.00379,-2.49976 -13.89219,-0.03439z" fill="#000000"/>
  <path id="svg_6" d="m61.99947,55.98496c5.51224,10.87028 1.87556,18.55704 -9.5054,21.04636c-4.77035,1.04346 -9.5765,0.53546 -14.37191,0.57459c-2.06286,0.01684 -2.99148,-1.13886 -2.99287,-3.12586c-0.00485,-6.96557 -0.00706,-13.93113 -0.00072,-20.8967c0.00148,-1.62297 0.44597,-3.20968 2.30445,-3.26239c8.53866,-0.24214 17.40069,-1.76747 24.56645,5.664z" fill="#000000"/>
  <path id="svg_7" d="m412.20933,89.58302c4.31158,4.37768 9.34518,3.83163 14.30871,2.9761c2.24473,-0.38696 3.85001,-0.59054 4.58671,2.12192c0.7489,2.75726 -0.83872,3.44611 -2.95197,4.14761c-8.97284,2.97831 -18.92367,0.15183 -23.2645,-6.71133c-4.71807,-7.45978 -3.69549,-19.8797 2.16001,-26.23435c4.68191,-5.08102 13.16943,-6.50587 19.34329,-3.24726c5.30463,2.79982 8.56732,10.74202 7.40515,17.35627c-0.5134,2.92197 -2.5166,2.66626 -4.4761,2.67881c-6.28681,0.04019 -12.57404,0.01495 -18.67029,0.01495c-1.17694,3.03882 0.24094,4.78314 1.55899,6.89728m9.59558,-21.3754c-7.25711,-1.39108 -10.7644,1.09345 -10.93994,7.93384c4.3201,1.72638 8.83957,0.08734 13.25525,0.49966c1.94131,0.18128 2.1691,-1.79663 1.79559,-3.36126c-0.47919,-2.00757 -1.62961,-3.62507 -4.1109,-5.07224z" fill="#000000"/>
  <path id="svg_8" d="m367.4127,89.96678c-4.72818,8.07791 -11.51944,11.28375 -19.30915,9.38794c-7.57031,-1.84244 -12.77633,-8.82071 -13.01486,-17.4455c-0.33093,-11.96442 5.84049,-20.2907 15.37448,-20.89119c14.60615,-0.91998 19.65491,11.27181 18.93564,21.37972c-0.1734,2.43692 -1.19162,4.81375 -1.98611,7.56903m-22.44995,-0.77484c2.436,3.26031 5.69702,4.5866 9.60711,3.54672c3.9715,-1.05622 5.54251,-4.26032 6.65558,-7.95804c1.00922,-3.35297 0.68775,-6.55362 -0.19565,-9.76849c-1.15823,-4.21518 -3.73391,-7.02698 -8.32177,-7.29352c-4.62784,-0.26886 -7.58591,2.324 -8.99814,6.39587c-1.67505,4.82962 -1.65677,9.75394 1.25287,15.07746z" fill="#000000"/>
  <path id="svg_9" d="m222.43739,96.52491c-7.39939,-7.12195 -9.29465,-17.01379 -5.22107,-25.81933c3.05063,-6.59426 8.99753,-10.0799 16.50836,-9.67589c6.66434,0.35847 12.24597,4.6187 14.54068,11.09825c3.09253,8.73221 0.91461,19.02719 -5.05865,23.91269c-5.65378,4.62411 -13.1399,4.87833 -20.76932,0.48428m1.32565,-22.13241c-1.48193,4.2572 -1.39423,8.51248 0.30112,12.6585c1.49789,3.663 4.0769,5.96921 8.31616,5.98047c4.22235,0.01123 6.8623,-2.25555 8.41751,-5.87741c1.47595,-3.43725 1.70468,-7.06131 0.87109,-10.74023c-0.98587,-4.35098 -3.01501,-7.85413 -7.79782,-8.62442c-4.79541,-0.77237 -7.89898,1.69626 -10.10806,6.60309z" fill="#000000"/>
  <path id="svg_10" d="m94.23911,93.06629c-2.73063,-9.62017 1.28672,-15.7272 10.76503,-16.91293c1.31307,-0.16431 2.66933,0.00852 3.97962,-0.16781c1.91089,-0.25718 4.7747,1.16885 5.12935,-2.23191c0.30673,-2.9415 -1.65616,-4.49261 -4.21678,-5.42294c-2.80072,-1.01755 -5.5555,-0.45758 -8.34769,0.07257c-1.86588,0.35431 -3.76621,0.42169 -4.24342,-2.12457c-0.45025,-2.40248 0.48255,-3.78787 2.964,-4.20929c4.10135,-0.69657 8.12695,-1.38861 12.31337,-0.1687c5.50336,1.60366 8.95634,5.28152 9.11606,10.9938c0.20433,7.30725 0.07092,14.6246 0.03871,21.93738c-0.00647,1.4678 0.14316,3.24942 -1.80743,3.64358c-7.03763,1.42228 -14.10401,2.44452 -21.0216,-0.53967c-2.04951,-0.88415 -3.46467,-2.53799 -4.66922,-4.86951m9.77021,-0.38818c1.96316,0.17529 3.92515,0.36496 5.88974,0.52258c3.01428,0.24186 4.48681,-0.94229 4.67701,-4.18441c0.37101,-6.32315 -0.8188,-7.38413 -7.83668,-6.5669c-2.67575,0.31159 -4.90544,1.20221 -5.75055,3.88648c-0.77403,2.45846 0.08687,4.54113 3.02048,6.34225z" fill="#000000"/>
  <path id="svg_11" d="m319.13383,91.55985c2.69006,2.00559 5.3844,1.72196 7.96499,1.08417c2.14188,-0.52939 3.58173,-0.29303 4.26133,1.98056c0.75924,2.54019 -0.54535,3.71787 -2.80176,4.30417c-9.4111,2.44531 -18.69324,-0.04144 -18.52808,-12.35412c0.13391,-9.98121 -0.04568,-19.96619 -0.00564,-29.94919c0.01993,-4.97072 0.58419,-5.38887 6.00961,-5.2265c0.20081,0.25338 0.52283,0.48634 0.57608,0.76982c1.67502,8.91272 1.66611,8.96406 10.62268,9.83449c2.13318,0.20732 3.45099,0.76779 3.431,3.2062c-0.02035,2.48084 -1.52826,2.94055 -3.54922,3.18949c-9.84272,1.21234 -9.91715,1.24111 -9.74845,11.17437c0.06674,3.92984 -0.72421,8.02024 1.76746,11.98654z" fill="#000000"/>
  <path id="svg_12" d="m381.71958,62.33818c4.98676,-0.81704 9.50897,-2.03403 14.18528,-0.47744c1.88055,0.62599 2.9758,1.36838 2.40057,3.48626c-0.51483,1.89562 -1.23938,3.47314 -3.71924,2.95163c-1.293,-0.27192 -2.61731,-0.47883 -3.93503,-0.53321c-3.92755,-0.16199 -6.1842,1.11228 -5.97799,5.72009c0.31143,6.9581 0.06613,13.94065 0.08249,20.91272c0.0054,2.30805 -0.09659,4.28074 -3.30564,4.31092c-3.01282,0.02832 -4.2113,-1.26258 -4.20105,-4.14536c0.03247,-9.12997 0.07758,-18.26083 -0.02585,-27.38974c-0.0336,-2.9644 1.58911,-4.12524 4.49646,-4.83587z" fill="#000000"/>
  <path id="svg_13" d="m190.50773,84.20765c0.01125,-5.80444 0.07013,-11.1289 0.01796,-16.4523c-0.02879,-2.93578 1.21951,-4.64459 4.14441,-5.25583c4.72714,-0.98788 9.39551,-2.1187 14.26677,-0.65462c1.9111,0.57439 2.97436,1.40502 2.53558,3.47602c-0.41394,1.95387 -1.1774,3.50639 -3.66989,2.96321c-1.13313,-0.24692 -2.29315,-0.4599 -3.44788,-0.50284c-5.12503,-0.19067 -6.52589,1.14221 -6.54536,6.20172c-0.02562,6.65515 -0.01537,13.31049 -0.01563,19.96573c-0.0001,2.41751 0.08368,4.67969 -3.45677,4.74515c-3.5448,0.06552 -3.51078,-1.95361 -3.45573,-4.54077c0.06705,-3.15097 -0.23166,-6.3097 -0.37346,-9.94547z" fill="#000000"/>
  <path id="svg_14" d="m365.76707,47.54818c2.71945,2.05358 4.27231,4.31999 3.12881,7.45235c-0.93478,2.56068 -3.02347,4.02801 -5.66961,4.15472c-2.56909,0.12302 -4.29895,-1.55923 -5.35486,-3.77397c-2.11841,-4.44324 1.58029,-8.34192 7.89566,-7.8331z" fill="#000000"/>
  <path id="svg_15" d="m346.72633,52.43598c0.1593,4.01694 -1.77567,6.19953 -5.112,6.65629c-2.91501,0.39907 -5.15286,-1.27227 -6.13477,-4.06385c-1.00952,-2.86995 0.07324,-5.24283 2.49185,-6.94636c3.31623,-2.33577 6.57987,-0.83287 8.75492,4.35392z" fill="#000000"/>
 </g>
</svg>